<svg xmlns="http://www.w3.org/2000/svg" xmlns:xlink="http://www.w3.org/1999/xlink" width="923.957" height="297.953" viewBox="0 0 923.957 297.953"><defs><style>.a,.e{fill:none;}.a{stroke:#ff8300;stroke-width:4px;}.b{fill:url(#a);}.c,.d{fill:#fff;}.c{font-size:35px;font-family:PSLKittithadaProBold, PSL Kittithada Pro;letter-spacing:0.13em;}.f{fill:#00a6ce;}.g{fill:#ff8300;}.h{fill:url(#f);}.i{filter:url(#g);}.j{filter:url(#d);}.k{filter:url(#b);}</style><linearGradient id="a" y1="0.5" x2="1" y2="0.5" gradientUnits="objectBoundingBox"><stop offset="0" stop-color="#fdb05e"/><stop offset="1" stop-color="#ff8300"/></linearGradient><filter id="b" x="0" y="0" width="298.13" height="297.953" filterUnits="userSpaceOnUse"><feOffset dy="10" input="SourceAlpha"/><feGaussianBlur stdDeviation="27.5" result="c"/><feFlood flood-color="#007e9d" flood-opacity="0.867"/><feComposite operator="in" in2="c"/><feComposite in="SourceGraphic"/></filter><filter id="d" x="224.957" y="54.578" width="672.901" height="101.764" filterUnits="userSpaceOnUse"><feOffset dy="3" input="SourceAlpha"/><feGaussianBlur stdDeviation="4.5" result="e"/><feFlood flood-color="#028fb1"/><feComposite operator="in" in2="e"/><feComposite in="SourceGraphic"/></filter><linearGradient id="f" x1="0.055" y1="0" y2="1" xlink:href="#a"/><filter id="g" x="275.882" y="55.022" width="99.796" height="99.923" filterUnits="userSpaceOnUse"><feOffset dy="3" input="SourceAlpha"/><feGaussianBlur stdDeviation="4.5" result="h"/><feFlood flood-color="#028fb1"/><feComposite operator="in" in2="h"/><feComposite in="SourceGraphic"/></filter></defs><g transform="translate(26.457 -102.547)"><line class="a" y2="88" transform="translate(895.5 284.5)"/><line class="a" x1="72" transform="translate(823.5 286.5)"/><rect class="b" width="644.901" height="47.265" transform="translate(213 263)"/><text class="c" transform="translate(271.24 296)"><tspan x="0" y="0">บริษัท ไทยสมุทรประกันชีวิต จำกัด มหาชน</tspan></text><g transform="translate(3640.043 -1184.953)"><g class="k" transform="matrix(1, 0, 0, 1, -3666.5, 1287.5)"><rect class="d" width="133.13" height="132.953" transform="translate(82.5 72.5)"/></g><g transform="translate(-3583.115 1360.885)"><rect class="e" width="1.147" height="1.147" transform="translate(0.046 0)"/><path class="d" d="M262.815,356.118H131.481l.046-131.288H262.815Z" transform="translate(-131.481 -224.829)"/><rect class="f" width="128.994" height="128.994" transform="translate(1.193 1.147)"/><g transform="translate(37.646 8.979)"><path class="d" d="M247.933,267.317a28.117,28.117,0,1,1-28.123-28.124A28.109,28.109,0,0,1,247.933,267.317Z" transform="translate(-191.7 -239.193)"/><g transform="translate(2.692 2.603)"><g transform="translate(9.738 9.55)"><path class="g" d="M232.4,261.821a3.156,3.156,0,0,1,3.155-3.185c2.563-.071,2.808.778,4.4,1.09a9.583,9.583,0,0,0,3.136-.048,6.05,6.05,0,0,1-4.123,2.124c-2.912,0-2.241-.656-4.128-.778a3.068,3.068,0,0,0-2.436.8" transform="translate(-219.387 -258.632)"/><path class="g" d="M218.425,285.555a13.128,13.128,0,0,0-5.747-8.505c-3.722-2.6,3.241-7.17,3.241-7.17s1.122-.549,3.588.056c.638.17.745-.656.745-.656s.286-.668,1.743-.575c.623.059.434-1.183.434-1.183s-.193-1.475.89-1.475a4.516,4.516,0,0,1,2.962,1.093c.293.4.483.786.36,2.087-.048.623,1.3,1.053,1.3,1.053s1.372.552,1.843.815c.424.219,3.242,1.72,3.538,1.928.3.185,2.425,1.587,2.425,1.587s1.3.956,2.306,1.78c.971.823,2.2,1.994,2.2,1.994a5.854,5.854,0,0,1,1.231,1.557,5.136,5.136,0,0,0,1.6,2.169c1.105.908,2.128,1.624,2.128,1.624s.786.434.052,1.4a2.946,2.946,0,0,1-.311.419h-1.728s.845-.671.148-1.224c-.675-.485-1.979-1.449-2.121-1.6s-1.053-1.164-1.208-1.335a16.314,16.314,0,0,0-4.026-2.943c-.779-.452-.868-.589-4.59-2.484,0,0-3.924-1.75-5.1-2.117a35.258,35.258,0,0,0-7.3-1.773s-1.1-.118-1.364.13c-.289.212.208,1.412.208,1.412l.223.7.653,2.195.893,4.26s.745,4.175.711,4.779Z" transform="translate(-211.583 -261.411)"/></g><path class="f" d="M221.554,243.356a25.563,25.563,0,1,0,25.583,25.563A25.557,25.557,0,0,0,221.554,243.356Zm-.041,2.792a22.678,22.678,0,0,1,22.673,22.7,23.048,23.048,0,0,1-1.527,8.2H200.366a22.73,22.73,0,0,1,21.147-30.9Z" transform="translate(-196.006 -243.356)"/></g></g><path class="d" d="M152.764,333.217v16.947h-2.688V333.639a5.831,5.831,0,0,1,2.2-4.5l-.743-.742-2.192,1.715-4.2-3.2,1.691-1.684,2.557,2.042,2.589-1.815,3.113,3.224A5.893,5.893,0,0,0,152.764,333.217Z" transform="translate(-136.602 -262.463)"/><path class="d" d="M174.278,355.308V344.817c0-2.2-1.795-3.626-4.344-3.626-2.446,0-5.408,1.537-5.408,3.59v10.526h-2.653V339.25h2.653v1.632a8.568,8.568,0,0,1,5.5-1.934c3.938,0,6.917,2.144,6.917,5.6v10.757Z" transform="translate(-142.874 -267.607)"/><path class="d" d="M197.867,355.619c-5.5,0-8.26-2.437-8.26-5.436,0-2.013,1.739-3.57,3.161-4.153a3.474,3.474,0,0,1-2.74-3.058c0-2.256,2.5-3.9,5.623-3.9a8.584,8.584,0,0,1,2.883.464v2.2a13.438,13.438,0,0,0-2.846-.417c-1.521,0-2.919.531-2.919,1.66,0,1.318,1.894,1.759,3.463,1.759h2.3v2.279h-1.905c-2.017,0-4.28,1.215-4.28,3.125,0,1.974,2.239,3.22,5.519,3.22a8.576,8.576,0,0,0,4.749-1.339V339.3h2.68v13.687S203.028,355.619,197.867,355.619Z" transform="translate(-153.27 -267.652)"/><path class="d" d="M232.2,354.625V348.16c-.826-1.465-2.978-2.561-5.511-2.561-3.328,0-5.293,1.843-5.293,4.078a2.991,2.991,0,0,0,3.093,2.919,5.02,5.02,0,0,0,2.644-.7l1.572,1.7a6.617,6.617,0,0,1-4.217,1.238c-3.462,0-5.735-2.442-5.735-5.158,0-3.251,2.812-6.353,7.934-6.353a8.754,8.754,0,0,1,5.511,1.711v-2.4c-.524-1.127-2.5-2.129-4.575-2.129-2.41,0-4.36.95-5.257,2.466h-2.816c1.108-3.041,4.154-4.709,8.049-4.709a10.112,10.112,0,0,1,3.411.568l1.688-1.707,2.134,1.35s-1.525,1.608-1.58,1.608a4.746,4.746,0,0,1,1.58,2.132v12.409Z" transform="translate(-164.194 -266.923)"/><path class="d" d="M257.031,355.794a8.445,8.445,0,0,1-5.472-1.962v1.656h-2.676V339.431h2.676v10.511c0,2.084,2.9,3.578,5.36,3.578,2.573,0,4.368-1.394,4.368-3.6V339.431h2.652v10.757C263.94,353.658,260.978,355.794,257.031,355.794Z" transform="translate(-175.489 -267.787)"/><path class="d" d="M288.976,355.308V344.817c0-2.2-1.771-3.626-4.32-3.626-2.478,0-5.393,1.537-5.393,3.59v10.526H276.6V339.25h2.66v1.632a8.429,8.429,0,0,1,5.488-1.934c3.915,0,6.909,2.144,6.909,5.6v10.757Z" transform="translate(-185.88 -267.607)"/><path class="d" d="M311.225,355.683c-3.931,0-7.624-1.937-7.624-5.988h2.66c0,2.74,2.534,3.748,5.067,3.748,2.454,0,4.86-1.088,4.86-2.971,0-1.854-2.5-2.3-4.86-2.5-3.582-.33-7.3-.957-7.3-3.975,0-2.8,3.319-4.924,7.06-4.924,3.891,0,7.036,1.715,7.561,4.634h-2.756c-.627-1.58-2.438-2.39-4.8-2.39-2.232,0-4.329,1.171-4.329,2.39,0,1.482,2.716,1.842,5.091,2,3.383.215,6.988,1.211,6.988,4.551C318.84,353.745,315.267,355.683,311.225,355.683Z" transform="translate(-196 -267.652)"/><path class="d" d="M159.333,389.844a5.143,5.143,0,0,1-2.24,4.371,7.9,7.9,0,0,1-4.867,1.491,7.979,7.979,0,0,1-4.867-1.491,5.407,5.407,0,0,1,.033-8.757,7.859,7.859,0,0,1,4.834-1.49,7.778,7.778,0,0,1,4.867,1.49A5.233,5.233,0,0,1,159.333,389.844Zm-1.906,0a3.8,3.8,0,0,0-1.635-3.166,5.97,5.97,0,0,0-3.566-1.023,5.78,5.78,0,0,0-3.73,1.163,3.909,3.909,0,0,0-.029,6.047,6.754,6.754,0,0,0,7.548,0A3.828,3.828,0,0,0,157.428,389.844Z" transform="translate(-136.602 -284.482)"/><path class="d" d="M183.012,389.264l-1.69.59a5.264,5.264,0,0,0-3.853-1.5,5.153,5.153,0,0,0-3.169.912,3.029,3.029,0,0,0,0,4.816,5.2,5.2,0,0,0,3.236.908,4.982,4.982,0,0,0,3.786-1.517l1.609.838a6.959,6.959,0,0,1-5.461,2.343,6.87,6.87,0,0,1-4.527-1.413,4.5,4.5,0,0,1,.223-7.285,6.971,6.971,0,0,1,4.189-1.253A7.07,7.07,0,0,1,183.012,389.264Z" transform="translate(-146.367 -285.507)"/><path class="d" d="M202.971,396.548h-10.1v-9.372H202.6v1.669h-7.934v2.013h5.517v1.65h-5.517v2.41h8.3Z" transform="translate(-154.492 -285.684)"/><path class="d" d="M224.72,396.548h-2.013l-1.064-2h-6.317l-1.083,2H212.2l5.142-9.372h2.272Zm-4.012-3.645-2.239-4.145-2.232,4.145Z" transform="translate(-161.737 -285.684)"/><path class="d" d="M246.061,396.548h-2.743l-6.39-7.815v7.815h-1.835v-9.372h2.755l6.4,7.853v-7.853h1.816Z" transform="translate(-170.32 -285.684)"/><path class="d" d="M275.747,395.563H265.389V384.537h1.839v9.391h8.52Z" transform="translate(-181.676 -284.695)"/><path class="d" d="M287.883,396.552h-1.809v-9.376h1.809Z" transform="translate(-189.43 -285.684)"/><path class="d" d="M302.851,388.848h-7.912v2.013h5.5v1.646h-5.5v4.045h-1.832v-9.376h9.744Z" transform="translate(-192.066 -285.684)"/><path class="d" d="M321.94,396.552H311.871v-9.376H321.94v1.672H313.7v2.013h5.517v1.646H313.7v2.41h8.245Z" transform="translate(-199.1 -285.684)"/><path class="d" d="M167.73,414.881h-1.423v-8.775h1.423Z" transform="translate(-144.536 -292.78)"/><path class="d" d="M181.744,415.659h-2.2l-5.057-6.225v6.225h-1.453v-7.477h2.157l5.072,6.25v-6.25h1.483Z" transform="translate(-147.056 -293.558)"/><path class="d" d="M197.455,409.941a7.412,7.412,0,0,0-3.225-.764c-1.62,0-2.517.281-2.517.878,0,.4.33.593,1,.7.808.063,1.675.111,2.506.23a6.317,6.317,0,0,1,2.654.653,1.771,1.771,0,0,1,.816,1.568,2.1,2.1,0,0,1-1.008,1.894,6.01,6.01,0,0,1-3.188.679,7.056,7.056,0,0,1-4.567-1.349l.763-1.072a6.09,6.09,0,0,0,3.8,1.135,5.368,5.368,0,0,0,1.957-.338,1.006,1.006,0,0,0,.7-.849c0-.423-.319-.7-.86-.864a9.089,9.089,0,0,0-1.469-.159c-1.034-.052-1.69-.111-1.912-.111a4.728,4.728,0,0,1-2.092-.571,1.578,1.578,0,0,1-.638-1.365,1.955,1.955,0,0,1,1.105-1.712,5.556,5.556,0,0,1,2.944-.582,6.52,6.52,0,0,1,4.056,1.093Z" transform="translate(-153.388 -293.467)"/><path class="d" d="M215.445,413.2a2.089,2.089,0,0,1-1.165,1.917,5.576,5.576,0,0,1-3.166.752,5.5,5.5,0,0,1-3.181-.752,2.136,2.136,0,0,1-1.194-1.917v-5.016H208.2v4.737c0,1.1,1.012,1.662,2.914,1.662,1.939,0,2.881-.56,2.881-1.662v-4.737h1.45Z" transform="translate(-159.692 -293.558)"/><path class="d" d="M233.445,415.659h-1.69l-1.98-2.74h-3.7v2.74h-1.461v-7.477h6.043a2.751,2.751,0,0,1,1.913.645,2.2,2.2,0,0,1,.7,1.768,2.067,2.067,0,0,1-1.869,2.2Zm-3.021-4.056c.919,0,1.375-.315,1.375-1.008,0-.711-.526-1.1-1.438-1.1h-4.286V411.6Z" transform="translate(-166.392 -293.558)"/><path class="d" d="M250.16,415.659H248.6l-.89-1.6h-5l-.861,1.6h-1.644l4.129-7.477h1.809Zm-3.151-2.9-1.817-3.322-1.78,3.322Z" transform="translate(-172.238 -293.558)"/><path class="d" d="M267.2,415.659h-2.172l-5.064-6.225v6.225H258.51v-7.477h2.18l5.072,6.25v-6.25H267.2Z" transform="translate(-179.098 -293.558)"/><path class="d" d="M285.2,409.866l-1.327.486a4.143,4.143,0,0,0-3.04-1.2,4.077,4.077,0,0,0-2.566.716,2.285,2.285,0,0,0-.956,1.9,2.2,2.2,0,0,0,.956,1.913,4.072,4.072,0,0,0,2.566.783,3.941,3.941,0,0,0,3.04-1.235l1.253.675a5.433,5.433,0,0,1-4.346,1.846,5.723,5.723,0,0,1-3.6-1.079,3.5,3.5,0,0,1-1.387-2.9,3.413,3.413,0,0,1,1.55-2.929,5.685,5.685,0,0,1,3.366-.971A5.5,5.5,0,0,1,285.2,409.866Z" transform="translate(-185.579 -293.44)"/><path class="d" d="M302.192,415.659h-8.053v-7.477h7.786v1.308H295.6v1.631h4.382v1.317H295.6v1.9h6.592Z" transform="translate(-192.453 -293.558)"/><rect class="g" width="114.302" height="1.865" transform="translate(8.539 95.879)"/><path class="d" d="M267.8,372.56v-2.823H266.02v-2.029h4.4v4.852Z" transform="translate(-181.913 -278.387)"/><rect class="e" width="1.147" height="1.147" transform="translate(130.187 0)"/></g></g><g transform="translate(199 301.193)"><g transform="translate(13 -133.568)"><g class="j" transform="matrix(1, 0, 0, 1, -238.46, -65.08)"><path class="d" d="M-44.854,33.315q0,9.2-5.966,14.915A19.686,19.686,0,0,1-65.227,54a21.836,21.836,0,0,1-7.711-1.365,20.825,20.825,0,0,1-6.505-3.871,21.128,21.128,0,0,1-4.728-6.029,22.1,22.1,0,0,1-2.38-7.9l8.441-1.9a14.858,14.858,0,0,0,1.047,5.331,12.712,12.712,0,0,0,2.7,4.157,11.946,11.946,0,0,0,4.03,2.7,12.978,12.978,0,0,0,4.982.952,12.647,12.647,0,0,0,4.887-.92,11.692,11.692,0,0,0,3.84-2.539,11.692,11.692,0,0,0,2.539-3.84,12.479,12.479,0,0,0,.92-4.823q0-6.347-3.618-9.583-1.967-1.967-7.806-4.7l-4.57-2.094A55.84,55.84,0,0,1-75.1,14.433a19.3,19.3,0,0,1-4.03-3.205A13.974,13.974,0,0,1-82.49,6.214,16.586,16.586,0,0,1-83.569.185,16.169,16.169,0,0,1-77.983-12.7a19.977,19.977,0,0,1,13.518-4.823q12.63,0,17.707,10.282l-6.664,4a13.664,13.664,0,0,0-4.887-4.665,13.722,13.722,0,0,0-6.664-1.555,10.37,10.37,0,0,0-7.045,2.6A8.675,8.675,0,0,0-75.254.185q0,6.093,9.076,9.837l4.823,1.967q8.124,3.427,11.8,7.426A16.992,16.992,0,0,1-46,25.508,24.641,24.641,0,0,1-44.854,33.315Zm134.41,2.094H59.536L51.984,52.545H43.035L74.7-18.919l31.353,71.464H97.235ZM63.027,27.73H86.192L74.578-.2Zm66.412-4.189h-4.062v29h-8.441V-16.063h13.645q10.472,0,16.628,4.633a17.547,17.547,0,0,1,5.173,6.315,19.9,19.9,0,0,1,1.745,8.663,20.218,20.218,0,0,1-1.111,6.727,18.633,18.633,0,0,1-8.156,10,19.041,19.041,0,0,1-6.6,2.38L159.2,52.545H149.05ZM146.321,3.929q0-12.376-18.088-12.376h-2.856V16.432h3.237Q146.321,16.432,146.321,3.929Zm42.358,48.616h-8.187v-60.8H164.371v-7.806H204.8v7.806H188.678ZM298.717,35.409H268.7l-7.553,17.136H252.2l31.67-71.464,31.353,71.464H306.4ZM272.188,27.73h23.165L283.739-.2Zm114.583-7.045q0,14.217-8.822,23.8Q369.19,54,355.355,54a31.248,31.248,0,0,1-23.8-10.535,35.67,35.67,0,0,1-9.774-25.006,36.227,36.227,0,0,1,9.774-25.45,32.47,32.47,0,0,1,24.562-10.535,34.02,34.02,0,0,1,8.219,1.015,36.088,36.088,0,0,1,7.806,2.919A33.508,33.508,0,0,1,379-8.923a29.047,29.047,0,0,1,5.363,6.251l-6.791,4.125Q368.81-9.716,356.5-9.716a25.1,25.1,0,0,0-18.85,8.187,27.363,27.363,0,0,0-7.616,19.611,29.209,29.209,0,0,0,1.84,10.44,30.625,30.625,0,0,0,5.649,9.234Q345.2,46.2,355.862,46.2q7.87,0,14.407-6.029a20.389,20.389,0,0,0,7.3-14.407H356.116V17.956h30.654Zm13.417-36.747h35.859v7.806H408.629v19.23H434.9v7.806H408.629V44.739h27.418v7.806H400.188ZM459.11,52.545H450.8V-19.363l49.25,53.82V-15.936h8.314V55.4L459.11,1.581Zm84.119,0h-8.187v-60.8h-16.12v-7.806h40.428v7.806h-16.12Z" transform="translate(325.01 84.44)"/></g><g transform="translate(50.925 0.444)"><g class="i" transform="matrix(1, 0, 0, 1, -289.38, -65.52)"><path class="h" d="M-15.085,6.6-35.2,53.69-55.386,6.724-63.192,52.23H-71.76l13.645-71.464L-35.2,34.84l22.721-54.074L1.036,52.23H-7.532Z" transform="translate(361.14 84.76)"/></g></g></g></g></g></svg>